<svg width="40" height="40" viewBox="0 0 40 40" fill="none" xmlns="http://www.w3.org/2000/svg">
<path fill-rule="evenodd" clip-rule="evenodd" d="M24.5999 18C24.5999 21.3137 21.9136 24 18.5999 24C15.2861 24 12.5999 21.3137 12.5999 18C12.5999 14.6863 15.2861 12 18.5999 12C21.9136 12 24.5999 14.6863 24.5999 18ZM23.44 24.3702C22.0961 25.3929 20.4189 26 18.5999 26C14.1816 26 10.5999 22.4183 10.5999 18C10.5999 13.5817 14.1816 10 18.5999 10C23.0181 10 26.5999 13.5817 26.5999 18C26.5999 19.876 25.9541 21.6012 24.8728 22.9654L29.3681 28.3598C29.7216 28.7841 29.6643 29.4147 29.24 29.7682C28.8158 30.1218 28.1852 30.0645 27.8316 29.6402L23.44 24.3702Z" fill="#9E9E9E"/>
</svg>
